<mxfile host="app.diagrams.net" modified="2021-04-24T20:15:40.555Z" agent="5.0 (Windows NT 10.0; Win64; x64) AppleWebKit/537.36 (KHTML, like Gecko) Chrome/87.0.4280.141 Safari/537.36 OPR/73.0.3856.438" etag="gAlk_0tbNZvXAap3Y0RJ" version="14.6.6" type="github">
  <diagram id="4KZkgevkkaj_wSR5H3SC" name="Page-1">
    <mxGraphModel dx="1381" dy="795" grid="1" gridSize="10" guides="1" tooltips="1" connect="1" arrows="1" fold="1" page="1" pageScale="1" pageWidth="827" pageHeight="1169" math="0" shadow="0">
      <root>
        <mxCell id="0" />
        <mxCell id="1" parent="0" />
        <mxCell id="cFOpIV7fnerJHx-KGlo3-9" value="" style="edgeStyle=orthogonalEdgeStyle;rounded=0;orthogonalLoop=1;jettySize=auto;html=1;" edge="1" parent="1" source="cFOpIV7fnerJHx-KGlo3-1" target="cFOpIV7fnerJHx-KGlo3-2">
          <mxGeometry relative="1" as="geometry" />
        </mxCell>
        <mxCell id="cFOpIV7fnerJHx-KGlo3-1" value="Inicio" style="ellipse;whiteSpace=wrap;html=1;" vertex="1" parent="1">
          <mxGeometry x="320" y="40" width="120" height="80" as="geometry" />
        </mxCell>
        <mxCell id="cFOpIV7fnerJHx-KGlo3-10" value="" style="edgeStyle=orthogonalEdgeStyle;rounded=0;orthogonalLoop=1;jettySize=auto;html=1;" edge="1" parent="1" source="cFOpIV7fnerJHx-KGlo3-2" target="cFOpIV7fnerJHx-KGlo3-4">
          <mxGeometry relative="1" as="geometry" />
        </mxCell>
        <mxCell id="cFOpIV7fnerJHx-KGlo3-2" value="num = 0&lt;br&gt;caunt = 50" style="rounded=0;whiteSpace=wrap;html=1;" vertex="1" parent="1">
          <mxGeometry x="320" y="150" width="120" height="60" as="geometry" />
        </mxCell>
        <mxCell id="cFOpIV7fnerJHx-KGlo3-12" value="" style="edgeStyle=orthogonalEdgeStyle;rounded=0;orthogonalLoop=1;jettySize=auto;html=1;" edge="1" parent="1" source="cFOpIV7fnerJHx-KGlo3-3" target="cFOpIV7fnerJHx-KGlo3-5">
          <mxGeometry relative="1" as="geometry" />
        </mxCell>
        <mxCell id="cFOpIV7fnerJHx-KGlo3-3" value="num = num +2" style="rounded=0;whiteSpace=wrap;html=1;" vertex="1" parent="1">
          <mxGeometry x="320" y="350" width="120" height="60" as="geometry" />
        </mxCell>
        <mxCell id="cFOpIV7fnerJHx-KGlo3-11" value="" style="edgeStyle=orthogonalEdgeStyle;rounded=0;orthogonalLoop=1;jettySize=auto;html=1;" edge="1" parent="1" source="cFOpIV7fnerJHx-KGlo3-4" target="cFOpIV7fnerJHx-KGlo3-3">
          <mxGeometry relative="1" as="geometry" />
        </mxCell>
        <mxCell id="cFOpIV7fnerJHx-KGlo3-4" value="num" style="shape=document;whiteSpace=wrap;html=1;boundedLbl=1;" vertex="1" parent="1">
          <mxGeometry x="320" y="240" width="120" height="80" as="geometry" />
        </mxCell>
        <mxCell id="cFOpIV7fnerJHx-KGlo3-13" value="" style="edgeStyle=orthogonalEdgeStyle;rounded=0;orthogonalLoop=1;jettySize=auto;html=1;" edge="1" parent="1" source="cFOpIV7fnerJHx-KGlo3-5" target="cFOpIV7fnerJHx-KGlo3-6">
          <mxGeometry relative="1" as="geometry" />
        </mxCell>
        <mxCell id="cFOpIV7fnerJHx-KGlo3-5" value="caunt&amp;nbsp; = caunt-1" style="rounded=0;whiteSpace=wrap;html=1;" vertex="1" parent="1">
          <mxGeometry x="320" y="440" width="120" height="60" as="geometry" />
        </mxCell>
        <mxCell id="cFOpIV7fnerJHx-KGlo3-14" value="Si" style="edgeStyle=orthogonalEdgeStyle;rounded=0;orthogonalLoop=1;jettySize=auto;html=1;" edge="1" parent="1" source="cFOpIV7fnerJHx-KGlo3-6" target="cFOpIV7fnerJHx-KGlo3-7">
          <mxGeometry relative="1" as="geometry" />
        </mxCell>
        <mxCell id="cFOpIV7fnerJHx-KGlo3-15" value="No" style="edgeStyle=orthogonalEdgeStyle;rounded=0;orthogonalLoop=1;jettySize=auto;html=1;entryX=0;entryY=0.5;entryDx=0;entryDy=0;" edge="1" parent="1" source="cFOpIV7fnerJHx-KGlo3-6" target="cFOpIV7fnerJHx-KGlo3-4">
          <mxGeometry relative="1" as="geometry">
            <mxPoint x="240" y="270" as="targetPoint" />
            <Array as="points">
              <mxPoint x="270" y="570" />
              <mxPoint x="270" y="280" />
            </Array>
          </mxGeometry>
        </mxCell>
        <mxCell id="cFOpIV7fnerJHx-KGlo3-6" value="caunt = 0" style="rhombus;whiteSpace=wrap;html=1;" vertex="1" parent="1">
          <mxGeometry x="340" y="530" width="80" height="80" as="geometry" />
        </mxCell>
        <mxCell id="cFOpIV7fnerJHx-KGlo3-7" value="Fin" style="ellipse;whiteSpace=wrap;html=1;" vertex="1" parent="1">
          <mxGeometry x="320" y="640" width="120" height="80" as="geometry" />
        </mxCell>
      </root>
    </mxGraphModel>
  </diagram>
</mxfile>
